<?xml version="1.0" encoding="utf-8"?>
<!-- Generator: Adobe Illustrator 19.2.1, SVG Export Plug-In . SVG Version: 6.00 Build 0)  -->
<svg version="1.1" id="Layer_1" xmlns="http://www.w3.org/2000/svg" xmlns:xlink="http://www.w3.org/1999/xlink" x="0px" y="0px"
	 viewBox="0 0 318 204" style="enable-background:new 0 0 318 204;" xml:space="preserve">
<style type="text/css">
	.st0{fill:#CCA944;}
	.st1{fill:#8C8E80;}
</style>
<path class="st0" d="M160.704,27.392l-1.393-0.092l-38.856,19.328l-0.726,3.601l-3.135,17.948l-0.019,0.243l0.123,32.457
	l0.755,1.229l42.042,21.521l1.251,0.006l43.839-21.919l0.366-0.689l-0.997-30.488l-0.015-0.169l-2.345-14.892l-0.224-0.176
	l-12.352-8.621L160.704,27.392z M201.217,71.694l0.606,18.557l-5.821-19.77l4.078,0.948L201.217,71.694z M170.415,106.42
	l-10.109,13.429l-6.339-11.468L170.415,106.42z M144.275,50.968l17.935-0.779l5.546,28.518l-14.955-6.499l-20.5-9.62L144.275,50.968
	z M146.889,48.078l11.854-15.724l2.932,15.081L146.889,48.078z M193.092,70.575l7.258,27.346l-28.4-17.087L193.092,70.575z
	 M168.838,84.959l3.449,18.165l-17.612,2.338L168.838,84.959z M141.381,90.369l-21.12,8.174l9.482-30.463L141.381,90.369z
	 M131.852,66.129l19.854,8.629l13.565,6.365l-21.289,8.239L131.852,66.129z M164.906,84.236l-13.025,20.255l-6.608-12.657
	L164.906,84.236z M196.085,67.653l3.578-6.613l1.216,7.727L196.085,67.653z M172.841,77.318l14.737-25.735l4.762,16.272
	L172.841,77.318z M170.142,76.452l-5.131-26.386l20.758-0.901L170.142,76.452z M164.476,47.314l-2.964-15.245l22.303,14.405
	L164.476,47.314z M154.425,33.481L143.887,47.48l-0.671,0.653l-15.384-1.148L154.425,33.481z M122.859,49.51l0.2-0.102l17.495,1.306
	l-11.338,11.02L122.859,49.51z M119.436,91.862l-0.085-22.514l8.114-3.285L119.436,91.862z M142.671,92.842l6.616,12.67
	l-26.215-5.084L142.671,92.842z M175.33,102.503l-3.804-18.543l26.581,15.864l-9.067,1.155L175.33,102.503z M198.283,56.528
	l-3.964,8.214l-4.038-13.799L198.283,56.528z M126.879,63.309l-7.124,2.883l2.108-12.06L126.879,63.309z M127.424,104.096
	l22.669,4.396l6.32,10.443L127.424,104.096z M175.015,105.564l14.289-1.822l6.46-0.718l-30.772,15.385L175.015,105.564z"/>
<polygon class="st0" points="23.601,153.434 26.634,153.434 26.634,171.859 36.172,171.859 36.172,174.619 23.601,174.619 "/>
<polygon class="st0" points="54.355,153.434 66.366,153.434 66.366,156.133 57.389,156.133 57.389,162.593 66.064,162.593 
	66.064,165.307 57.389,165.307 57.389,171.889 66.654,171.889 66.654,174.589 54.355,174.589 "/>
<polygon class="st0" points="98.833,153.434 101.853,153.434 92.895,174.71 92.21,174.71 83.078,153.434 86.132,153.434 
	92.504,168.311 "/>
<rect x="119.734" y="153.434" class="st0" width="3.033" height="21.186"/>
<path class="st1" d="M149.761,153.312h2.132l9.498,21.307h-3.104l-2.824-6.278h-9.038l-2.648,6.278h-3.115L149.761,153.312z
	 M154.217,165.641l-3.417-7.674l-3.17,7.674H154.217z"/>
<polygon class="st1" points="179.243,153.434 182.276,153.434 182.276,171.859 191.814,171.859 191.814,174.619 179.243,174.619 "/>
<path class="st1" d="M209.831,174.618v-21.216h6.718c2.022,0,3.635,0.547,4.838,1.638c1.203,1.093,1.804,2.559,1.804,4.397
	c0,1.235-0.308,2.327-0.924,3.277c-0.618,0.95-1.461,1.64-2.532,2.07c-1.072,0.429-2.609,0.643-4.612,0.643h-2.243v9.19H209.831z
	 M216.018,156.103h-3.138v6.626h3.32c1.234,0,2.185-0.29,2.851-0.872c0.668-0.581,1.001-1.413,1.001-2.495
	C220.052,157.19,218.708,156.103,216.018,156.103"/>
<polygon class="st1" points="256.297,153.434 259.33,153.434 259.33,174.619 256.297,174.619 256.297,165.399 244.391,165.399 
	244.391,174.619 241.358,174.619 241.358,153.434 244.391,153.434 244.391,162.593 256.297,162.593 "/>
<path class="st1" d="M286.295,153.312h2.132l9.498,21.307h-3.104l-2.824-6.278h-9.038l-2.648,6.278h-3.115L286.295,153.312z
	 M290.751,165.641l-3.417-7.674l-3.17,7.674H290.751z"/>
</svg>
