<?xml version="1.0" encoding="utf-8"?>
<!-- Generator: Adobe Illustrator 16.0.0, SVG Export Plug-In . SVG Version: 6.00 Build 0)  -->
<!DOCTYPE svg PUBLIC "-//W3C//DTD SVG 1.1//EN" "http://www.w3.org/Graphics/SVG/1.1/DTD/svg11.dtd">
<svg version="1.1" id="Layer_1" xmlns="http://www.w3.org/2000/svg" xmlns:xlink="http://www.w3.org/1999/xlink" x="0px" y="0px"
	 width="200px" height="200px" viewBox="0 0 200 200" enable-background="new 0 0 200 200" xml:space="preserve">
<g>
	<rect x="34.875" y="75.55" fill="#A6A8AB" width="29.104" height="85.494"/>
	<circle fill="#A6A8AB" cx="49.748" cy="48.566" r="15.592"/>
	<path fill="#A6A8AB" d="M79.571,161.044V75.55h23.593h3.432h1.267l0.033,11.954c0,0,8.057-14.811,28.585-13.512
		c20.528,1.298,28.324,17.929,28.845,28.583c0.52,10.655,0.52,58.469,0.52,58.469H137.52v-40.797c0,0,0.421-6.214-0.414-11.749
		s-4.178-11.28-11.487-12.324c-7.312-1.044-11.271,2.391-13.37,4.491c-2.401,2.401-3.251,5.252-4.353,10.548
		c-1.113,5.356-0.312,49.831-0.312,49.831H79.571z"/>
</g>
</svg>
